# Blender v2.82 (sub 7) OBJ File: 'untitledWMIRROR.blend'
# www.blender.org
mtllib foldedCloth.mtl
o Cube.164_Cube.185
v -0.188082 0.029566 0.184534
v -0.222395 0.029566 0.150287
v -0.212345 0.029566 0.174504
v -0.222395 -0.029566 0.150285
v -0.188079 -0.029566 0.184534
v -0.212344 -0.029566 0.174503
v -0.222395 0.029566 -0.150287
v -0.188082 0.029566 -0.184534
v -0.212345 0.029566 -0.174504
v -0.188079 -0.029566 -0.184534
v -0.222395 -0.029566 -0.150285
v -0.212344 -0.029566 -0.174503
v 0.222395 0.029566 0.150287
v 0.188082 0.029566 0.184534
v 0.212345 0.029566 0.174504
v 0.188079 -0.029566 0.184534
v 0.222395 -0.029566 0.150285
v 0.212344 -0.029566 0.174503
v 0.188082 0.029566 -0.184534
v 0.222395 0.029566 -0.150287
v 0.212345 0.029566 -0.174504
v 0.222395 -0.029566 -0.150285
v 0.188079 -0.029566 -0.184534
v 0.212344 -0.029566 -0.174503
v -0.208078 0.009302 0.201124
v -0.242388 0.009302 0.166879
v -0.232339 0.009302 0.191094
v -0.242388 0.009302 -0.166879
v -0.208078 0.009302 -0.201124
v -0.232339 0.009302 -0.191094
v 0.208078 0.009302 -0.201124
v 0.242388 0.009302 -0.166879
v 0.232339 0.009302 -0.191094
v 0.242388 0.009302 0.166879
v 0.208078 0.009302 0.201124
v 0.232339 0.009302 0.191094
v -0.242388 -0.010863 0.166877
v -0.208077 -0.010863 0.201124
v -0.232338 -0.010863 0.191093
v -0.242388 -0.010863 -0.166877
v -0.208077 -0.010863 -0.201124
v -0.232338 -0.010863 -0.191093
v 0.208077 -0.010863 -0.201124
v 0.242388 -0.010863 -0.166877
v 0.232338 -0.010863 -0.191093
v 0.242388 -0.010863 0.166877
v 0.208077 -0.010863 0.201124
v 0.232338 -0.010863 0.191093
vt 0.715258 0.369871
vt 0.999863 0.369871
vt 0.741669 0.343408
vt 0.101147 0.740103
vt 0.072801 0.776689
vt 0.646274 0.778636
vt 0.654873 0.661746
vt 0.678514 0.684946
vt 0.679903 0.109402
vt 0.571017 0.087895
vt 0.596506 0.066940
vt 0.128768 0.051903
vt 0.714984 0.716829
vt 0.714984 0.081181
vt 0.036588 0.089058
vt 0.000137 0.062843
vt 0.004669 0.714559
vt 0.628348 0.638060
vt 0.656681 0.130111
vt 0.151736 0.689809
vt 0.123210 0.718251
vt 0.588415 0.716634
vt 0.083149 0.129790
vt 0.058682 0.107713
vt 0.062700 0.654762
vt 0.715258 0.026597
vt 0.999863 0.026597
vt 0.741668 0.000137
vt 0.619077 0.047957
vt 0.105678 0.033228
vt 0.611544 0.740229
vt 0.039589 0.678754
vt 0.629391 0.095896
vt 0.607246 0.105874
vt 0.071353 0.061201
vt 0.036036 0.031965
vt 0.070525 0.709314
vt 0.039324 0.745404
vt 0.644810 0.712527
vt 0.680346 0.747228
vt 0.681057 0.050405
vt 0.648319 0.019134
vt 0.091391 0.076613
vt 0.090131 0.689156
vt 0.623945 0.692274
vt 0.649355 0.078831
vt 0.105572 0.088743
vt 0.149271 0.074883
vt 0.110549 0.671872
vt 0.093725 0.631531
vt 0.607437 0.672129
vt 0.570792 0.690910
vt 0.071394 0.000137
vt 0.973452 0.686405
vt 0.715258 0.659943
vt 0.741669 0.686405
vt 0.722994 0.678654
vt 0.999863 0.659942
vt 0.722994 0.351159
vt 0.973452 0.343408
vt 0.992127 0.351159
vt 0.992127 0.678654
vt 0.627434 0.145426
vt 0.973453 0.343134
vt 0.715258 0.316674
vt 0.741668 0.343134
vt 0.722993 0.335384
vt 0.999863 0.316674
vt 0.722993 0.007887
vt 0.973453 0.000137
vt 0.992128 0.007887
vt 0.992128 0.335384
vn -0.0502 -0.9075 -0.4170
vn -0.0502 -0.9075 0.4170
vn -0.3771 -0.9246 -0.0529
vn 0.8972 0.3968 -0.1936
vn 0.3964 0.9163 -0.0564
vn 0.3964 0.9163 0.0564
vn 0.1992 -0.3925 0.8979
vn 0.2008 0.3754 0.9048
vn -0.2008 0.3754 0.9048
vn -0.3771 -0.9246 0.0529
vn -0.8901 -0.4134 0.1920
vn -0.8901 -0.4134 -0.1920
vn 0.0536 0.8985 0.4356
vn -0.0536 0.8985 0.4356
vn -0.2008 0.3754 -0.9048
vn -0.0536 0.8985 -0.4356
vn 0.0536 0.8985 -0.4356
vn 0.0502 -0.9075 0.4170
vn -0.1992 -0.3925 0.8979
vn 0.3771 -0.9246 -0.0529
vn 0.8901 -0.4134 -0.1920
vn 0.8901 -0.4134 0.1920
vn -0.1992 -0.3925 -0.8979
vn 0.1992 -0.3925 -0.8979
vn -0.8972 0.3968 0.1936
vn -0.8972 0.3968 -0.1936
vn 0.8972 0.3968 0.1936
vn 0.2008 0.3754 -0.9048
vn -0.6458 -0.4155 0.6406
vn -0.2578 -0.9271 0.2720
vn -0.6505 0.4007 -0.6451
vn -0.2724 0.9185 -0.2868
vn 0.6505 0.4007 -0.6451
vn 0.2724 0.9185 -0.2868
vn 0.6505 0.4007 0.6451
vn 0.2724 0.9185 0.2868
vn -0.2724 0.9185 0.2868
vn -0.3964 0.9163 0.0564
vn -0.6458 -0.4155 -0.6406
vn 0.6458 -0.4155 -0.6406
vn 0.6458 -0.4155 0.6406
vn -0.6505 0.4007 0.6451
vn -0.2578 -0.9271 -0.2720
vn 0.2578 -0.9271 -0.2720
vn 0.0502 -0.9075 -0.4170
vn 0.2578 -0.9271 0.2720
vn 0.3771 -0.9246 0.0529
vn -0.3964 0.9163 -0.0564
usemtl cloth_5
s 1
f 10/1/1 5/2/2 11/3/3
f 32/4/4 20/5/5 13/6/6
f 47/7/7 35/8/8 25/9/9
f 4/10/10 37/11/11 40/12/12
f 35/8/8 14/13/13 1/14/14
f 29/15/15 8/16/16 19/17/17
f 16/18/18 47/7/7 38/19/19
f 22/20/20 44/21/21 46/22/22
f 10/23/1 41/24/23 43/25/24
f 19/26/17 14/27/13 20/28/5
f 37/11/11 26/29/25 28/30/26
f 44/21/21 32/4/4 34/31/27
f 41/24/23 29/15/15 31/32/28
f 38/19/19 39/33/29 6/34/30
f 6/34/30 39/33/29 37/11/11
f 29/15/15 30/35/31 9/36/32
f 9/36/32 30/35/31 28/30/26
f 32/4/4 33/37/33 21/38/34
f 21/38/34 33/37/33 31/32/28
f 35/8/8 36/39/35 15/40/36
f 15/40/36 36/39/35 34/31/27
f 25/9/9 1/14/14 3/41/37
f 3/41/37 2/42/38 26/29/25
f 29/15/15 41/24/23 42/43/39
f 42/43/39 40/12/12 28/30/26
f 32/4/4 44/21/21 45/44/40
f 45/44/40 43/25/24 31/32/28
f 35/8/8 47/7/7 48/45/41
f 48/45/41 46/22/22 34/31/27
f 25/9/9 27/46/42 39/33/29
f 39/33/29 27/46/42 26/29/25
f 41/24/23 10/23/1 12/47/43
f 12/47/43 11/48/3 40/12/12
f 44/21/21 22/20/20 24/49/44
f 24/49/44 23/50/45 43/25/24
f 47/7/7 16/18/18 18/51/46
f 18/51/46 17/52/47 46/22/22
f 26/29/25 2/42/38 7/53/48
f 17/54/47 23/55/45 22/56/20
f 22/56/20 23/55/45 24/57/44
f 23/55/45 16/58/18 10/1/1
f 17/54/47 16/58/18 23/55/45
f 10/1/1 11/3/3 12/59/43
f 11/3/3 5/2/2 4/60/10
f 4/60/10 5/2/2 6/61/30
f 5/2/2 10/1/1 16/58/18
f 16/58/18 17/54/47 18/62/46
f 32/4/4 13/6/6 34/31/27
f 47/7/7 25/9/9 38/19/19
f 4/10/10 40/12/12 11/48/3
f 35/8/8 1/14/14 25/9/9
f 29/15/15 19/17/17 31/32/28
f 16/18/18 38/19/19 5/63/2
f 22/20/20 46/22/22 17/52/47
f 10/23/1 43/25/24 23/50/45
f 2/64/38 8/65/16 7/66/48
f 7/66/48 8/65/16 9/67/32
f 8/65/16 1/68/14 19/26/17
f 2/64/38 1/68/14 8/65/16
f 19/26/17 20/28/5 21/69/34
f 20/28/5 14/27/13 13/70/6
f 13/70/6 14/27/13 15/71/36
f 14/27/13 19/26/17 1/68/14
f 1/68/14 2/64/38 3/72/37
f 37/11/11 28/30/26 40/12/12
f 44/21/21 34/31/27 46/22/22
f 41/24/23 31/32/28 43/25/24
f 38/19/19 6/34/30 5/63/2
f 6/34/30 37/11/11 4/10/10
f 29/15/15 9/36/32 8/16/16
f 9/36/32 28/30/26 7/53/48
f 32/4/4 21/38/34 20/5/5
f 21/38/34 31/32/28 19/17/17
f 35/8/8 15/40/36 14/13/13
f 15/40/36 34/31/27 13/6/6
f 25/9/9 3/41/37 27/46/42
f 3/41/37 26/29/25 27/46/42
f 29/15/15 42/43/39 30/35/31
f 42/43/39 28/30/26 30/35/31
f 32/4/4 45/44/40 33/37/33
f 45/44/40 31/32/28 33/37/33
f 35/8/8 48/45/41 36/39/35
f 48/45/41 34/31/27 36/39/35
f 25/9/9 39/33/29 38/19/19
f 39/33/29 26/29/25 37/11/11
f 41/24/23 12/47/43 42/43/39
f 12/47/43 40/12/12 42/43/39
f 44/21/21 24/49/44 45/44/40
f 24/49/44 43/25/24 45/44/40
f 47/7/7 18/51/46 48/45/41
f 18/51/46 46/22/22 48/45/41
f 26/29/25 7/53/48 28/30/26
